<svg xmlns="http://www.w3.org/2000/svg" width="900" height="560" viewBox="0 0 900 560">
  <defs><marker id="arrow" markerWidth="8" markerHeight="8" refX="7" refY="3" orient="auto" markerUnits="strokeWidth"><path d="M0,0 L0,6 L7,3 z" fill="#000000"/></marker></defs>
  <rect x="0" y="0" width="900" height="560" fill="#ffffff"/>
  <text x="450.0" y="38" font-family="SimSun, Songti SC, Noto Serif CJK SC, Microsoft YaHei, Arial, sans-serif" font-size="26" font-weight="bold" text-anchor="middle" fill="#000000">翻译适配关系</text>
  <rect x="45" y="90" width="150" height="58" fill="#f7f7f7" stroke="#000000" stroke-width="1.3"/>
  <text x="120.0" y="124" font-family="SimSun, Songti SC, Noto Serif CJK SC, Microsoft YaHei, Arial, sans-serif" font-size="21" font-weight="bold" text-anchor="middle" fill="#000000">统一请求</text>
  <text x="120.0" y="152" font-family="SimSun, Songti SC, Noto Serif CJK SC, Microsoft YaHei, Arial, sans-serif" font-size="17" font-weight="normal" text-anchor="middle" fill="#000000">功能动作</text>
  <rect x="375" y="90" width="150" height="58" fill="#ffffff" stroke="#000000" stroke-width="1.3"/>
  <text x="450.0" y="124" font-family="SimSun, Songti SC, Noto Serif CJK SC, Microsoft YaHei, Arial, sans-serif" font-size="21" font-weight="bold" text-anchor="middle" fill="#000000">翻译规则</text>
  <text x="450.0" y="152" font-family="SimSun, Songti SC, Noto Serif CJK SC, Microsoft YaHei, Arial, sans-serif" font-size="17" font-weight="normal" text-anchor="middle" fill="#000000">集中维护</text>
  <rect x="705" y="90" width="150" height="58" fill="#f7f7f7" stroke="#000000" stroke-width="1.3"/>
  <text x="780.0" y="124" font-family="SimSun, Songti SC, Noto Serif CJK SC, Microsoft YaHei, Arial, sans-serif" font-size="21" font-weight="bold" text-anchor="middle" fill="#000000">后端设备</text>
  <text x="780.0" y="152" font-family="SimSun, Songti SC, Noto Serif CJK SC, Microsoft YaHei, Arial, sans-serif" font-size="17" font-weight="normal" text-anchor="middle" fill="#000000">实际执行</text>
  <rect x="285" y="270" width="330" height="70" fill="#ffffff" stroke="#000000" stroke-width="1.3"/>
  <text x="450.0" y="304" font-family="SimSun, Songti SC, Noto Serif CJK SC, Microsoft YaHei, Arial, sans-serif" font-size="21" font-weight="bold" text-anchor="middle" fill="#000000">七类入口</text>
  <text x="450.0" y="332" font-family="SimSun, Songti SC, Noto Serif CJK SC, Microsoft YaHei, Arial, sans-serif" font-size="17" font-weight="normal" text-anchor="middle" fill="#000000">中文语义分派</text>
  <line x1="450.0" y1="235" x2="450.0" y2="270" stroke="#000000" stroke-width="1.3"/>
  <polyline points="120.0,148 120.0,235 450.0,235" fill="none" stroke="#000000" stroke-width="1.3"/>
  <polyline points="450.0,148 450.0,235 450.0,235" fill="none" stroke="#000000" stroke-width="1.3"/>
  <polyline points="780.0,148 780.0,235 450.0,235" fill="none" stroke="#000000" stroke-width="1.3"/>
  <line x1="450.0" y1="235" x2="450.0" y2="270" stroke="#000000" stroke-width="1.3" marker-end="url(#arrow)"/>
  <line x1="450.0" y1="340" x2="450.0" y2="385" stroke="#000000" stroke-width="1.3"/>
  <rect x="60" y="430" width="140" height="54" fill="#ffffff" stroke="#000000" stroke-width="1.3"/>
  <text x="130.0" y="464" font-family="SimSun, Songti SC, Noto Serif CJK SC, Microsoft YaHei, Arial, sans-serif" font-size="21" font-weight="bold" text-anchor="middle" fill="#000000">设备管理</text>
  <polyline points="450.0,385 130.0,385 130.0,430" fill="none" stroke="#000000" stroke-width="1.3" marker-end="url(#arrow)"/>
  <rect x="166" y="430" width="140" height="54" fill="#f7f7f7" stroke="#000000" stroke-width="1.3"/>
  <text x="236.0" y="464" font-family="SimSun, Songti SC, Noto Serif CJK SC, Microsoft YaHei, Arial, sans-serif" font-size="21" font-weight="bold" text-anchor="middle" fill="#000000">密钥管理</text>
  <polyline points="450.0,385 236.0,385 236.0,430" fill="none" stroke="#000000" stroke-width="1.3" marker-end="url(#arrow)"/>
  <rect x="272" y="430" width="140" height="54" fill="#ffffff" stroke="#000000" stroke-width="1.3"/>
  <text x="342.0" y="464" font-family="SimSun, Songti SC, Noto Serif CJK SC, Microsoft YaHei, Arial, sans-serif" font-size="21" font-weight="bold" text-anchor="middle" fill="#000000">非对称</text>
  <polyline points="450.0,385 342.0,385 342.0,430" fill="none" stroke="#000000" stroke-width="1.3" marker-end="url(#arrow)"/>
  <rect x="378" y="430" width="140" height="54" fill="#f7f7f7" stroke="#000000" stroke-width="1.3"/>
  <text x="448.0" y="464" font-family="SimSun, Songti SC, Noto Serif CJK SC, Microsoft YaHei, Arial, sans-serif" font-size="21" font-weight="bold" text-anchor="middle" fill="#000000">对称</text>
  <polyline points="450.0,385 448.0,385 448.0,430" fill="none" stroke="#000000" stroke-width="1.3" marker-end="url(#arrow)"/>
  <rect x="484" y="430" width="140" height="54" fill="#ffffff" stroke="#000000" stroke-width="1.3"/>
  <text x="554.0" y="464" font-family="SimSun, Songti SC, Noto Serif CJK SC, Microsoft YaHei, Arial, sans-serif" font-size="21" font-weight="bold" text-anchor="middle" fill="#000000">杂凑</text>
  <polyline points="450.0,385 554.0,385 554.0,430" fill="none" stroke="#000000" stroke-width="1.3" marker-end="url(#arrow)"/>
  <rect x="590" y="430" width="140" height="54" fill="#f7f7f7" stroke="#000000" stroke-width="1.3"/>
  <text x="660.0" y="464" font-family="SimSun, Songti SC, Noto Serif CJK SC, Microsoft YaHei, Arial, sans-serif" font-size="21" font-weight="bold" text-anchor="middle" fill="#000000">文件</text>
  <polyline points="450.0,385 660.0,385 660.0,430" fill="none" stroke="#000000" stroke-width="1.3" marker-end="url(#arrow)"/>
  <rect x="696" y="430" width="140" height="54" fill="#ffffff" stroke="#000000" stroke-width="1.3"/>
  <text x="766.0" y="464" font-family="SimSun, Songti SC, Noto Serif CJK SC, Microsoft YaHei, Arial, sans-serif" font-size="21" font-weight="bold" text-anchor="middle" fill="#000000">抗量子</text>
  <polyline points="450.0,385 766.0,385 766.0,430" fill="none" stroke="#000000" stroke-width="1.3" marker-end="url(#arrow)"/>
</svg>
